<svg width="600" height="900" viewBox="0 0 600 900" xmlns="http://www.w3.org/2000/svg">
  <defs>
    <radialGradient id="bg" cx="40%" cy="35%" r="75%"><stop offset="0%" stop-color="#1e0f24"/><stop offset="100%" stop-color="#06040e"/></radialGradient>
    <radialGradient id="nebula" cx="50%" cy="48%" r="48%"><stop offset="0%" stop-color="#8a4ae8" stop-opacity="0.20"/><stop offset="60%" stop-color="#6a28c9" stop-opacity="0.06"/><stop offset="100%" stop-color="#6a28c9" stop-opacity="0"/></radialGradient>
    <radialGradient id="ig" cx="50%" cy="50%" r="50%"><stop offset="55%" stop-color="#8a4ae8" stop-opacity="0"/><stop offset="100%" stop-color="#8a4ae8" stop-opacity="0.4"/></radialGradient>
    <radialGradient id="pf" cx="35%" cy="30%" r="60%"><stop offset="0%" stop-color="#1e0a3a"/><stop offset="100%" stop-color="#0a0818"/></radialGradient>
    <radialGradient id="pa" cx="50%" cy="50%" r="50%"><stop offset="75%" stop-color="#8a4ae8" stop-opacity="0"/><stop offset="100%" stop-color="#8a4ae8" stop-opacity="0.5"/></radialGradient>
    <radialGradient id="pg" cx="50%" cy="50%" r="50%"><stop offset="65%" stop-color="#8a4ae8" stop-opacity="0"/><stop offset="100%" stop-color="#8a4ae8" stop-opacity="0.28"/></radialGradient>
    <clipPath id="pc"><circle cx="450" cy="200" r="92"/></clipPath>
    <linearGradient id="rg" x1="16" y1="2" x2="16" y2="22" gradientUnits="userSpaceOnUse">
      <stop offset="0%" stop-color="#aa6cff"/>
      <stop offset="100%" stop-color="#6a28c9"/>
    </linearGradient>
  </defs>
  <rect width="600" height="900" fill="url(#bg)"/>
  <rect width="600" height="900" fill="url(#nebula)"/>
  <circle cx="32"  cy="40"  r="1.4" fill="white" opacity="0.95"/>
  <circle cx="92"  cy="21"  r="1.8" fill="white" opacity="0.9"/>
  <circle cx="155" cy="58"  r="1.2" fill="white" opacity="0.88"/>
  <circle cx="213" cy="18"  r="1.6" fill="white" opacity="0.85"/>
  <circle cx="290" cy="52"  r="1.0" fill="white" opacity="0.7"/>
  <circle cx="340" cy="32"  r="1.4" fill="white" opacity="0.9"/>
  <circle cx="395" cy="70"  r="1.1" fill="white" opacity="0.65"/>
  <circle cx="520" cy="48"  r="2.0" fill="white" opacity="0.95"/>
  <circle cx="570" cy="88"  r="1.2" fill="white" opacity="0.8"/>
  <circle cx="55"  cy="110" r="1.0" fill="white" opacity="0.6"/>
  <circle cx="128" cy="138" r="1.3" fill="white" opacity="0.75"/>
  <circle cx="195" cy="170" r="1.0" fill="white" opacity="0.65"/>
  <circle cx="555" cy="170" r="1.4" fill="white" opacity="0.7"/>
  <circle cx="75"  cy="530" r="1.2" fill="white" opacity="0.5"/>
  <circle cx="245" cy="490" r="1.0" fill="white" opacity="0.45"/>
  <circle cx="520" cy="540" r="1.3" fill="white" opacity="0.5"/>
  <circle cx="40"  cy="700" r="1.2" fill="white" opacity="0.4"/>
  <circle cx="545" cy="680" r="1.0" fill="white" opacity="0.45"/>
  <circle cx="300" cy="820" r="1.1" fill="white" opacity="0.4"/>
  <circle cx="60"  cy="70"  r="0.7" fill="white" opacity="0.6"/>
  <circle cx="170" cy="100" r="0.8" fill="white" opacity="0.55"/>
  <circle cx="350" cy="160" r="0.8" fill="white" opacity="0.55"/>
  <circle cx="450" cy="200" r="92" fill="url(#pf)"/>
  <ellipse cx="450" cy="186" rx="92" ry="16" fill="#1e0a3a" opacity="0.4" clip-path="url(#pc)"/>
  <ellipse cx="450" cy="210" rx="92" ry="13" fill="#0a0818" opacity="0.4" clip-path="url(#pc)"/>
  <circle cx="450" cy="200" r="92" fill="url(#pa)"/>
  <circle cx="450" cy="200" r="116" fill="url(#pg)"/>
  <ellipse cx="492" cy="200" rx="82" ry="92" fill="#06040e" opacity="0.5" clip-path="url(#pc)"/>
  <!-- Rocket pushed up to y=340, text pushed down to y=740/775 -->
  <circle cx="300" cy="340" r="156" fill="url(#ig)"/>
  <circle cx="300" cy="340" r="138" fill="none" stroke="#8a4ae8" stroke-width="1.4" stroke-opacity="0.22"/>
  <circle cx="300" cy="340" r="138" fill="none" stroke="#8a4ae8" stroke-width="0.7" stroke-opacity="0.10" stroke-dasharray="8 14"/>
  <circle cx="300" cy="340" r="120" fill="#0d0818" opacity="0.65"/>
  <g transform="translate(300,340) scale(14) translate(-16,-14)">
    <path d="M16 2 L21 9 L22 19 Q22 22 19 22 L13 22 Q10 22 10 19 L11 9 Z" fill="url(#rg)"/>
    <circle cx="16" cy="13" r="3.5" fill="white" opacity="0.9"/>
    <circle cx="16" cy="13" r="2" fill="#bde0ff" opacity="0.7"/>
    <circle cx="17" cy="12" r="0.7" fill="white"/>
    <path d="M10 18 L5 25 L11 21 Z" fill="#6a28c9"/>
    <path d="M22 18 L27 25 L21 21 Z" fill="#6a28c9"/>
    <path d="M12 22 Q14 30 16 27 Q18 30 20 22" fill="#ffb347" opacity="0.95"/>
    <path d="M13.5 22 Q15 28 16 26 Q17 28 18.5 22" fill="#fff176" opacity="0.75"/>
  </g>
  <text x="300" y="740" text-anchor="middle" font-family="system-ui,-apple-system,sans-serif" font-size="52" font-weight="700" fill="#f5ede8" letter-spacing="10">LIFTOFF</text>
  <text x="300" y="775" text-anchor="middle" font-family="system-ui,-apple-system,sans-serif" font-size="18" font-weight="400" fill="#8a4ae8" opacity="0.85" letter-spacing="6">GAME LAUNCHER</text>
  <rect width="600" height="900" rx="24" fill="none" stroke="#8a4ae8" stroke-width="1.5" stroke-opacity="0.18"/>
</svg>
